<svg xmlns="http://www.w3.org/2000/svg" xmlns:xlink="http://www.w3.org/1999/xlink" width="201" height="191" viewBox="0 0 201 191">
  <defs>
    <clipPath id="clip-path">
      <rect id="Rectangle_1" data-name="Rectangle 1" width="201" height="191" transform="translate(1719)" fill="#fff" stroke="#707070" stroke-width="1"/>
    </clipPath>
  </defs>
  <g id="Mask_Group_3" data-name="Mask Group 3" transform="translate(-1719)" clip-path="url(#clip-path)">
    <g id="Group_5" data-name="Group 5" transform="translate(1804.391 280.524) rotate(-130)" opacity="0.296">
      <g id="Path_12" data-name="Path 12" transform="translate(0)" fill="none">
        <path d="M123.426.9l125,216.7L1.576,215.8Z" stroke="none"/>
        <path d="M 123.4337844848633 2.913497924804688 L 3.285797119140625 214.8122100830078 L 246.6902770996094 216.5855255126953 L 123.4337844848633 2.913497924804688 M 123.4263153076172 0.8992156982421875 L 248.4289093017578 217.5982208251953 L 1.576248168945312 215.7997741699219 L 123.4263153076172 0.8992156982421875 Z" stroke="none" fill="#8e8e8e"/>
      </g>
      <g id="Path_13" data-name="Path 13" transform="translate(10.41 13.934)" fill="none">
        <path d="M113.5.827,228.423,197.643,1.432,195.989Z" stroke="none"/>
        <path d="M 113.5028305053711 2.822433471679688 L 3.1517333984375 195.0018463134766 L 226.6732940673828 196.6303405761719 L 113.5028305053711 2.822433471679688 M 113.4955749511719 0.826873779296875 L 228.4226837158203 197.6430969238281 L 1.43157958984375 195.9893341064453 L 113.4955749511719 0.826873779296875 Z" stroke="none" fill="#8e8e8e"/>
      </g>
      <g id="Path_14" data-name="Path 14" transform="translate(21.919 26.434)" fill="none">
        <path d="M102.546.747,206.388,178.873,1.3,177.378Z" stroke="none"/>
        <path d="M 102.5534896850586 2.745162963867188 L 3.01434326171875 176.3908538818359 L 204.6401062011719 177.8598022460938 L 102.5534896850586 2.745162963867188 M 102.5461959838867 0.7470855712890625 L 206.3880310058594 178.8725738525391 L 1.295623779296875 177.3783569335938 L 102.5461959838867 0.7470855712890625 Z" stroke="none" fill="#8e8e8e"/>
      </g>
      <g id="Path_15" data-name="Path 15" transform="translate(34.413 39.395)" fill="none">
        <path d="M90.324.658,181.8,159.208,1.153,157.892Z" stroke="none"/>
        <path d="M 90.33113098144531 2.672027587890625 L 2.86297607421875 156.9044952392578 L 180.0618133544922 158.1954803466797 L 90.33113098144531 2.672027587890625 M 90.32366180419922 0.658050537109375 L 181.8006134033203 159.2081756591797 L 1.153274536132812 157.8920745849609 L 90.32366180419922 0.658050537109375 Z" stroke="none" fill="#8e8e8e"/>
      </g>
      <g id="Path_16" data-name="Path 16" transform="translate(45.171 52.936)" fill="none">
        <path d="M79.629.58l80.636,138.408L1.007,137.828Z" stroke="none"/>
        <path d="M 79.63624572753906 2.579177856445312 L 2.724868774414062 136.8399963378906 L 158.5172729492188 137.9750366210938 L 79.63624572753906 2.579177856445312 M 79.62895202636719 0.58013916015625 L 160.2646331787109 138.98779296875 L 1.006729125976562 137.8275146484375 L 79.62895202636719 0.58013916015625 Z" stroke="none" fill="#8e8e8e"/>
      </g>
    </g>
  </g>
</svg>
