<svg xmlns="http://www.w3.org/2000/svg" width="291.648" height="304.398" viewBox="0 0 291.648 304.398">
  <g id="Group_4" data-name="Group 4" transform="translate(-1051.328 190.052) rotate(-63)" opacity="0.342" style="isolation: isolate">
    <g id="Polygon_1" data-name="Polygon 1" transform="translate(459.139 945.99)" fill="none">
      <path d="M118.084,0,236.167,206.99H0Z" stroke="none"/>
      <path d="M 118.0836791992188 2.018096923828125 L 1.721755981445312 205.990478515625 L 234.4456024169922 205.990478515625 L 118.0836791992188 2.018096923828125 M 118.0836791992188 0 L 236.1673583984375 206.990478515625 L 0 206.990478515625 L 118.0836791992188 0 Z" stroke="none" fill="#dd1940"/>
    </g>
    <g id="Polygon_10" data-name="Polygon 10" transform="translate(469.002 959.283)" fill="none">
      <path d="M108.583,0,217.166,187.989H0Z" stroke="none"/>
      <path d="M 108.5828018188477 1.999374389648438 L 1.732437133789062 186.9887237548828 L 215.4331665039062 186.9887237548828 L 108.5828018188477 1.999374389648438 M 108.5828018188477 1.52587890625e-05 L 217.1656036376953 187.9887237548828 L 0 187.9887237548828 L 108.5828018188477 1.52587890625e-05 Z" stroke="none" fill="#dd1940"/>
    </g>
    <g id="Polygon_11" data-name="Polygon 11" transform="translate(479.926 971.193)" fill="none">
      <path d="M98.107,0l98.107,170.137H0Z" stroke="none"/>
      <path d="M 98.10741424560547 2.001861572265625 L 1.730972290039062 169.1374969482422 L 194.4838409423828 169.1374969482422 L 98.10741424560547 2.001861572265625 M 98.10741424560547 0 L 196.2148132324219 170.1374969482422 L -1.52587890625e-05 170.1374969482422 L 98.10741424560547 0 Z" stroke="none" fill="#dd1940"/>
    </g>
    <g id="Polygon_12" data-name="Polygon 12" transform="translate(491.789 983.538)" fill="none">
      <path d="M86.414,0l86.414,151.447H0Z" stroke="none"/>
      <path d="M 86.41392517089844 2.017776489257812 L 1.721908569335938 150.4466705322266 L 171.1059417724609 150.4466705322266 L 86.41392517089844 2.017776489257812 M 86.41392517089844 0 L 172.8278503417969 151.4466705322266 L 0 151.4466705322266 L 86.41392517089844 0 Z" stroke="none" fill="#dd1940"/>
    </g>
    <g id="Polygon_13" data-name="Polygon 13" transform="translate(501.987 996.452)" fill="none">
      <path d="M76.182,0l76.182,132.2H0Z" stroke="none"/>
      <path d="M 76.18214416503906 2.00286865234375 L 1.730422973632812 131.201171875 L 150.6338653564453 131.201171875 L 76.18214416503906 2.00286865234375 M 76.18214416503906 0 L 152.3642883300781 132.201171875 L 0 132.201171875 L 76.18214416503906 0 Z" stroke="none" fill="#dd1940"/>
    </g>
  </g>
</svg>
