<svg xmlns="http://www.w3.org/2000/svg" xmlns:xlink="http://www.w3.org/1999/xlink" width="393" height="263" viewBox="0 0 393 263">
  <defs>
    <clipPath id="clip-path">
      <rect id="Rectangle_1" data-name="Rectangle 1" width="393" height="263" fill="#fff" stroke="#707070" stroke-width="1"/>
    </clipPath>
  </defs>
  <g id="Mask_Group_1" data-name="Mask Group 1" clip-path="url(#clip-path)">
    <g id="Group_2" data-name="Group 2" transform="matrix(-0.629, 0.777, -0.777, -0.629, 1666.462, 112.454)" opacity="0.3">
      <g id="Polygon_1" data-name="Polygon 1" transform="translate(459.139 945.99)" fill="none">
        <path d="M453.621,0,907.241,795.158H0Z" stroke="none"/>
        <path d="M 453.62060546875 6.05426025390625 L 5.165283203125 792.1575927734375 L 902.075927734375 792.1575927734375 L 453.62060546875 6.05426025390625 M 453.62060546875 0 L 907.2412109375 795.1575927734375 L 0 795.1575927734375 L 453.62060546875 0 Z" stroke="none" fill="#8e8e8e"/>
      </g>
      <g id="Polygon_10" data-name="Polygon 10" transform="translate(497.027 997.055)" fill="none">
        <path d="M417.123,0,834.245,722.162H0Z" stroke="none"/>
        <path d="M 417.1226196289062 5.99786376953125 L 5.19720458984375 719.1618041992188 L 829.0479125976562 719.1618041992188 L 417.1226196289062 5.99786376953125 M 417.1226196289062 -6.103515625e-05 L 834.2451782226562 722.1618041992188 L -6.103515625e-05 722.1618041992188 L 417.1226196289062 -6.103515625e-05 Z" stroke="none" fill="#8e8e8e"/>
      </g>
      <g id="Polygon_11" data-name="Polygon 11" transform="translate(538.993 1042.808)" fill="none">
        <path d="M376.881,0,753.762,653.586H0Z" stroke="none"/>
        <path d="M 376.8811340332031 6.005615234375 L 5.1929931640625 650.5858154296875 L 748.5692749023438 650.5858154296875 L 376.8811340332031 6.005615234375 M 376.8811340332031 0 L 753.76220703125 653.5858154296875 L 6.103515625e-05 653.5858154296875 L 376.8811340332031 0 Z" stroke="none" fill="#8e8e8e"/>
      </g>
      <g id="Polygon_12" data-name="Polygon 12" transform="translate(584.565 1090.231)" fill="none">
        <path d="M331.961,0,663.921,581.785H0Z" stroke="none"/>
        <path d="M 331.9605407714844 6.05340576171875 L 5.16571044921875 578.7848510742188 L 658.7553100585938 578.7848510742188 L 331.9605407714844 6.05340576171875 M 331.9605407714844 0 L 663.9210205078125 581.7848510742188 L -6.103515625e-05 581.7848510742188 L 331.9605407714844 0 Z" stroke="none" fill="#8e8e8e"/>
      </g>
      <g id="Polygon_13" data-name="Polygon 13" transform="translate(623.74 1139.84)" fill="none">
        <path d="M292.655,0,585.31,507.853H0Z" stroke="none"/>
        <path d="M 292.6549682617188 6.008514404296875 L 5.19122314453125 504.8529357910156 L 580.11865234375 504.8529357910156 L 292.6549682617188 6.008514404296875 M 292.6549682617188 3.0517578125e-05 L 585.3098754882812 507.8529357910156 L -6.103515625e-05 507.8529357910156 L 292.6549682617188 3.0517578125e-05 Z" stroke="none" fill="#8e8e8e"/>
      </g>
    </g>
  </g>
</svg>
