<svg xmlns="http://www.w3.org/2000/svg" width="367.587" height="28.074" viewBox="0 0 367.587 28.074">
  <g id="whitelogo" transform="translate(-291.029 -50.045)">
    <path id="Path_1" data-name="Path 1" d="M291.029,50.568h13.844c3.394,0,5.784.849,7.366,2.429a5.921,5.921,0,0,1,1.735,4.358v.077a6.247,6.247,0,0,1-4.165,6.016c3.277,1.08,5.36,2.93,5.36,6.595v.076c0,4.627-3.779,7.443-10.22,7.443H291.029Zm11.993,10.76c2.276,0,3.548-.771,3.548-2.353V58.9c0-1.466-1.157-2.315-3.394-2.315h-4.859v4.744Zm1.08,10.22c2.275,0,3.586-.887,3.586-2.468V69c0-1.465-1.157-2.429-3.664-2.429h-5.708v4.975Z" transform="translate(0 0.016)" fill="#fff"/>
    <path id="Path_2" data-name="Path 2" d="M329.5,50.568h7.52V77.563H329.5Z" transform="translate(1.178 0.016)" fill="#fff"/>
    <path id="Path_3" data-name="Path 3" d="M351.831,64.159v-.077c0-7.868,6.17-14.037,14.538-14.037a15.743,15.743,0,0,1,10.952,3.933l-4.4,5.283a9.522,9.522,0,0,0-6.518-2.545,7.09,7.09,0,0,0-6.9,7.4V64.2a7.131,7.131,0,0,0,7.328,7.481,7.627,7.627,0,0,0,4.318-1.118V67.283H365.83V61.806h12.417V73.954a18.252,18.252,0,0,1-11.723,4.165C358.117,78.119,351.831,72.334,351.831,64.159Z" transform="translate(1.862)" fill="#fff"/>
    <path id="Path_4" data-name="Path 4" d="M394.019,50.568h3.046V77.563h-3.046Z" transform="translate(3.153 0.016)" fill="#fff"/>
    <path id="Path_5" data-name="Path 5" d="M415.653,50.568h2.854L435.513,72.2V50.568h2.969V77.563h-2.429L418.622,55.427V77.563h-2.969Z" transform="translate(3.816 0.016)" fill="#fff"/>
    <path id="Path_6" data-name="Path 6" d="M454.484,73.64l1.889-2.236a12.854,12.854,0,0,0,9.255,3.817c3.626,0,6.016-1.927,6.016-4.589v-.076c0-2.506-1.349-3.934-7.017-5.128-6.21-1.35-9.062-3.356-9.062-7.791V57.56c0-4.242,3.74-7.366,8.869-7.366a14.086,14.086,0,0,1,9.486,3.317l-1.774,2.352a11.861,11.861,0,0,0-7.789-2.93c-3.509,0-5.746,1.928-5.746,4.357v.077c0,2.546,1.387,3.972,7.327,5.245,6.016,1.311,8.792,3.509,8.792,7.635v.077c0,4.628-3.857,7.636-9.217,7.636A15.791,15.791,0,0,1,454.484,73.64Z" transform="translate(5.004 0.005)" fill="#fff"/>
    <path id="Path_7" data-name="Path 7" d="M498.189,53.384h-9.063V50.568h21.211v2.816h-9.063V77.563h-3.085Z" transform="translate(6.065 0.016)" fill="#fff"/>
    <path id="Path_8" data-name="Path 8" d="M523.065,64.157V64.08A13.768,13.768,0,1,1,550.6,64v.077a13.768,13.768,0,1,1-27.535.077Zm24.373,0V64.08c0-6.132-4.474-11.145-10.644-11.145S526.227,57.87,526.227,64v.077c0,6.131,4.474,11.144,10.644,11.144S547.438,70.288,547.438,64.157Z" transform="translate(7.104 0.002)" fill="#fff"/>
    <path id="Path_9" data-name="Path 9" d="M567.095,50.568H578.7a10.643,10.643,0,0,1,7.675,2.7,7.457,7.457,0,0,1,2.081,5.321v.077c0,4.474-3.084,7.1-7.326,7.868l8.29,11.029h-3.74l-7.828-10.49H570.14v10.49h-3.045Zm11.337,13.767c4.049,0,6.942-2.082,6.942-5.552v-.077c0-3.317-2.547-5.322-6.9-5.322H570.14V64.335Z" transform="translate(8.452 0.016)" fill="#fff"/>
    <path id="Path_10" data-name="Path 10" d="M605.2,50.568h19.513v2.776H608.244v9.217h14.732v2.776H608.244v9.449H624.9v2.776H605.2Z" transform="translate(9.619 0.016)" fill="#fff"/>
    <path id="Path_11" data-name="Path 11" d="M640.287,69.465h7.636v7.519h-7.636Z" transform="translate(10.693 0.595)" fill="#dd1940"/>
  </g>
</svg>
